<?xml version='1.0' encoding='utf-8'?>
<svg xmlns="http://www.w3.org/2000/svg" enable-background="new 0 0 841.89 595.28" version="1.1" viewBox="0 0 841.89 595.28">
<path d="m458.58 115.4s58.191-9.028 77.969 1.064c30.096 15.36 47.475 62.44 44.428 90.34-1.291 11.828-10.1 29.054-40.066 25.686-23.91-2.688-31.523-21.259-32.68-32.772-1.381-13.763 13.297-44.359 4.625-55.135-7.361-9.144-46.836-3.345-46.836-3.345l-7.44-25.838z" fill="#B88E2E"/>
<path d="m459 115.4s58.191-9.028 77.969 1.064c30.096 15.36 47.475 62.44 44.428 90.34-1.291 11.828-10.1 29.054-40.064 25.686-23.912-2.688-31.525-21.259-32.682-32.772-1.381-13.763 13.297-44.359 4.625-55.135-7.359-9.144-46.836-3.345-46.836-3.345l-7.44-25.838z" fill="#B88E2E"/>
<path d="m576.18 219.86c-5.301 8.18-15.84 14.847-35.512 12.63-23.918-2.693-31.521-21.255-32.688-32.774-1.381-13.767 13.307-44.353 4.623-55.138-7.359-9.145-46.83-3.341-46.83-3.341l-7.443-25.834 13.844 15.264s46.332-5.802 53.691 3.342c8.668 10.771-6.004 41.371-4.621 55.137 1.15 11.506 8.77 30.082 32.688 32.775 9.33 1.051 16.601 0.099 22.248-2.061z" fill="#B38A2C"/>
<path d="m453.88 399.28s-64.08-35.281-67.678 40.686c-0.498 10.543 23.758 34.914 23.758 34.914s-40.557 4.621-23.76 44.639c2.959 7.051 21.911 8.518 29.537 7.93 9.674-0.746 30.877-0.773 38.143-7.209 7.586-6.719 15.781-28.246 13.68-38.16-1.957-9.23-21.6-30.961-21.6-30.961l7.92-51.839z" fill="#B88E2E"/>
<path d="m366.63 356.47c-10.665 0-22.059 1.082-32.637-0.215-12.359-1.514-23.146-8.264-35.547-3.861-13.962 4.959-13.09 13.684-17.182 25.943-2.916 8.74-8.739 14.215-14.688 21.068-15.093 17.393-8.525 40.078 14.66 43.248 19.311 2.641 42.366-5.145 49.713-24.51 0.927-2.443 1.096-6.111 1.243-8.748 8.746 3.109 20.087 4.264 29.705 4.67 10.837 0.461 15.687 0.891 16.998-10.793 1.011-9 1.588-47.65-12.267-47.762" fill="#B88E2E"/>
<path d="m379.53 403.28c-1.31 11.68-6.164 11.248-16.992 10.785-9.618-0.402-20.966-1.555-29.707-4.664-0.144 2.635-0.316 6.307-1.238 8.74-7.358 19.367-30.413 27.158-49.724 24.508-10.973-1.498-18.23-7.373-21.211-14.99 3.83 3.76 9.26 6.438 16.172 7.389 19.31 2.635 42.364-5.141 49.723-24.51 0.922-2.449 1.094-6.119 1.238-8.756 8.741 3.111 20.088 4.262 29.707 4.682 10.829 0.459 15.682 0.893 16.992-10.801 0.705-6.25 1.195-26.828-3.211-38.838 9.705 6.826 9.145 38.434 8.251 46.455z" fill="#B38A2C"/>
<path d="m626.79 374.71s-4.129 54.83-13.68 69.84c-20.16 31.68-53.279 21.244-53.279 21.244l-10.555 35.23s59.514 0 73.914-35.23c19.018-46.529 3.6-91.084 3.6-91.084z" fill="#B88E2E"/>
<path d="m623.18 464.59c-14.4 35.223-73.902 35.223-73.902 35.223l4.422-14.76c15.193-1.023 56.563-6.424 68.242-35.006 8.164-19.988 9.979-39.602 9.402-55.484 2.332 17.351 2.736 43.359-8.164 70.027z" fill="#B38A2C"/>
<path d="m350.18 382.63c12.131 75.602 74.832 87.84 74.832 87.84s55.02 73.938 122.58 31.68c94.32-58.996-62.641-205.2-62.641-205.2l-127.44 2.161c0-1e-3 -10.512 63.696-7.331 83.518z" fill="#B88E2E"/>
<path d="m425.24 469.59s-62.711-12.238-74.837-87.838c-3.182-19.828 7.331-83.521 7.331-83.521l15.565-0.26c-2.605 17.05-8.769 60.769-6.249 76.58 12.138 75.6 74.836 87.84 74.836 87.84l-16.646 7.199z" fill="#B38A2C"/>
<path d="m440.05 420.63c0 16.516-10.537 49.838-10.537 49.838s-70.837-6.984-78.829-93.385c-0.446-4.881-0.246-12.383 0.331-20.908 9.188-9.043 20.404-14.355 32.516-14.355 31.218-1e-3 56.519 35.294 56.519 78.81z" fill="#FEEEA2"/>
	<path d="m386.87 335.2c0-3.105-3.224-5.623-7.199-5.623-3.977 0-7.2 2.518-7.2 5.623v22.773c0 3.107 3.224 5.623 7.2 5.623s7.199-2.516 7.199-5.623v-22.773z" fill="#FEDA12"/>
	<path d="m386.87 335.2v22.781c0 1.557-0.806 2.951-2.102 3.975-1.312 1.008-3.111 1.641-5.098 1.641-1.312 0-2.549-0.273-3.601-0.762 0.548-0.23 1.052-0.533 1.498-0.879 1.296-1.023 2.103-2.418 2.103-3.975v-22.781c0-2.072-1.44-3.889-3.601-4.854 1.052-0.488 2.289-0.762 3.601-0.762 3.974 1e-3 7.2 2.521 7.2 5.616z" fill="#CF6E28" opacity=".3"/>
	<ellipse cx="379.99" cy="375.66" rx="25.92" ry="26.641" fill="#FEDA12"/>
	<path d="m405.91 375.66c0 14.717-11.606 26.641-25.92 26.641-1.729 0-3.414-0.174-5.04-0.52 11.895-2.389 20.88-13.176 20.88-26.121s-8.985-23.732-20.88-26.121c1.626-0.346 3.312-0.52 5.04-0.52 14.314 1e-3 25.92 11.924 25.92 26.641z" fill="#CF6E28" opacity=".3"/>
	<path d="m500.97 309.72v5.816c0 14.516-34.014 26.281-75.961 26.281-41.946 0-75.96-11.766-75.96-26.281 0-0.979 0.362-2.412 0.362-3.369 4.177 13.148 36.487 23.834 75.598 23.834s71.324-10.225 75.5-23.371c0.302-0.951 0.461-1.932 0.461-2.91z" fill="#FEDA12"/>
	<path d="m500.97 310.62c0 0.979-0.158 1.957-0.461 2.908-4.176 13.146-36.389 23.371-75.5 23.371-39.11 0-71.322-10.225-75.499-23.371-0.303-0.951-0.461-1.93-0.461-2.908 0-3.629 2.132-7.1 5.991-10.224 1.224 1.008 2.62 1.972 4.19 2.907 13.132 7.848 37.67 13.133 65.778 13.133 28.109 0 52.648-5.285 65.779-13.133 1.568-0.936 2.967-1.899 4.191-2.907 3.859-3.139 5.992 10.224 5.992 10.224z" fill="#CF6E28"/>
	<path d="m500.97 309.72v5.816c0 14.516-34.014 26.281-75.961 26.281-41.946 0-75.96-11.766-75.96-26.281 0-0.979 0.362-2.412 0.362-3.369 4.177 13.148 36.487 23.834 75.598 23.834s71.324-10.225 75.5-23.371c0.302-0.951 0.461-1.932 0.461-2.91z" fill="#CF6E28" opacity=".3"/>
<path d="m381.58 113.09s-48.686-45.086-70.633-48.46c-27.741-4.266-66.432 17.133-81.92 40.539-6.566 9.922-10.801 28.8 14.399 45.359 20.109 13.216 37.834 3.797 46.079-4.319 9.858-9.703 27.805-34.706 41.432-35.608 8.338-0.552 28.409 17.608 28.409 17.608l22.234-15.119z" fill="#B88E2E"/>
<path d="m408.99 101.11c-109.8 0-81 135.36-81 135.36h169.2c0 1e-3 32.401-135.36-88.199-135.36z" fill="#B88E2E"/>
<path d="m374.79 318.55s10.8 15.84 34.2 15.84c29.404 0 37.719-15.84 37.719-15.84s66.924-9.553 67.762-48.959c1.16-54.72-56.16-43.2-56.16-43.2s-18-18-49.32-18c-34.2 0-51.841 14.04-51.841 14.04s-54.359-17.641-54.359 43.764c-1e-3 38.675 71.999 52.355 71.999 52.355z" fill="#FEEEA2"/>
<ellipse cx="452.82" cy="178.24" rx="27.809" ry="31.774" fill="#fff"/>
<ellipse cx="365.43" cy="178.24" rx="27.809" ry="31.774" fill="#fff"/>
<ellipse cx="365.36" cy="177.43" rx="15.185" ry="16.56"/>
<ellipse cx="363.27" cy="172.07" rx="5.76" ry="6.166" fill="#fff"/>
<ellipse cx="404.67" cy="236.47" rx="35.64" ry="17.28"/>
<path d="m333.03 245.11s0 34.56 19.44 39.642c30.902 8.079 55.44-5.803 55.44-5.803s38.798 12.961 55.438 4.32c19.686-10.221 21.6-38.159 21.6-38.159" fill="none" stroke="#000" stroke-miterlimit="10" stroke-width="1.8345"/>
<path d="m382 113.09s-48.686-45.086-70.633-48.46c-27.741-4.266-66.432 17.133-81.92 40.539-6.566 9.922-10.801 28.8 14.399 45.359 20.109 13.216 37.834 3.797 46.081-4.319 9.857-9.703 27.803-34.706 41.432-35.608 8.336-0.552 28.407 17.608 28.407 17.608l22.234-15.119z" fill="#B88E2E"/>
<path d="m409.41 101.11c-109.8 0-81 135.36-81 135.36h169.2c0 1e-3 32.401-135.36-88.199-135.36z" fill="#B88E2E"/>
<path d="m375.21 318.55s10.8 15.84 34.2 15.84c29.404 0 37.721-15.84 37.721-15.84s66.922-9.553 67.76-48.959c1.16-54.72-56.16-43.2-56.16-43.2s-18-18-49.32-18c-34.2 0-51.839 14.04-51.839 14.04s-54.361-17.641-54.361 43.764c-1e-3 38.675 71.999 52.355 71.999 52.355z" fill="#FEEEA2"/>
<ellipse cx="447.06" cy="178.24" rx="5.76" ry="6.168" fill="#fff"/>
<ellipse cx="409.41" cy="236.47" rx="35.639" ry="17.28"/>
<path d="m381.59 114.9l-22.233 15.12s-20.074-18.158-28.412-17.611c-13.636 0.907-31.578 25.905-41.428 35.611-8.251 8.122-25.977 17.539-46.079 4.319-18.662-12.269-21.183-25.791-18.577-36.028 1.915 7.314 7.315 15.192 18.577 22.594 20.103 13.205 37.828 3.786 46.079-4.32 9.85-9.706 27.792-34.719 41.428-35.611 8.338-0.562 28.412 17.611 28.412 17.611l13.695-9.303c5.256 4.58 8.538 7.618 8.538 7.618z" fill="#B38A2C"/>
<path d="m501.2 211.06c-2.607-38.736-20.363-86.214-91.8-86.214-65.563 0-81.705 48.27-84.082 87.149-2.218-39.239 4.825-109.76 84.082-109.76 86.357 0 94.263 69.393 91.8 108.82z" fill="#B38A2C"/>
<path d="m515.24 269.59c-0.016 0.576-0.045 1.151-0.088 1.729-2.463-48.788-56.072-38.018-56.072-38.018s-18-18-49.32-18c-34.2 0-51.839 14.041-51.839 14.041s-51.626-16.748-54.26 39.24c-0.073-0.793-0.102-1.584-0.102-2.39 0-61.403 54.361-43.763 54.361-43.763s17.639-14.04 51.839-14.04c31.32 0 49.32 18 49.32 18s57.312-11.519 56.161 43.201z" fill="#B38A2C" opacity=".1"/>
<path d="m514.47 272.19c-0.836 39.412-67.768 48.959-67.768 48.959s-8.309 15.84-37.713 15.84c-23.4 0-34.2-15.84-34.2-15.84s-72-13.68-72-52.357c0-4.768 0.332-9.058 0.937-12.918 8.409 32.991 71.063 44.901 71.063 44.901s10.8 15.839 34.2 15.839c29.404 0 37.713-15.839 37.713-15.839s58.422-8.353 66.789-41.574c0.719 3.844 1.078 8.165 0.979 12.989z" fill="#B38A2C" opacity=".1"/>
<path d="m456.9 455.15c1.77 15.314 23.756 34.914 23.756 34.914s-83.32-14.559-56.174 42.715c3.273 6.908 39.896 4.646 60.885 4.646 61.502 0 101.67-13.752 90.627-103.68-7.523-61.311-131.59-86.802-119.09 21.407z" fill="#B88E2E"/>
<path d="m486.49 536.91c-9.346 0-21.785 0.445-33.004 0.332 8.352-0.086 16.732-0.332 23.486-0.332 56.65 0 95.199-11.664 92.305-83.793-0.244-6.178-0.807-12.801-1.67-19.887-0.029-0.273-0.072-0.531-0.117-0.793-0.719-3.512-1.641-7.055-2.736-10.611-11.365-36.838-41.42-75.143-63.291-99.57-0.389-0.434-1.764-1.895-1.764-1.895s0.725-1.725 1.023-2.67c0.309-0.98 0.398-4.426 0.398-4.426s59.912 62.396 73.152 108.56c1.027 3.576 2.018 7.1 2.736 10.611 0.043 0.262 0.086 0.52 0.117 0.793 0.861 7.086 1.424 13.709 1.668 19.887 2.898 72.129-35.652 83.793-92.303 83.793z" fill="#B38A2C"/>
<path d="m577.83 453.11c-0.244-6.178-0.805-12.801-1.668-19.887-0.029-0.273-0.074-0.531-0.115-0.793 1.467 7.044 2.115 13.969 1.783 20.68z" fill="#B38A2C"/>
<path d="m576.05 432.43c-0.721-3.512-1.643-7.055-2.738-10.611 1.296 3.384 2.232 6.925 2.738 10.611z" fill="#B38A2C"/>
<path d="m568.31 453.11c-0.244-6.178-0.807-12.801-1.67-19.887-0.029-0.273-0.072-0.531-0.115-0.793 1.469 7.044 2.117 13.969 1.785 20.68z" fill="#B38A2C"/>
<path d="m566.53 432.43c-0.721-3.512-1.643-7.055-2.736-10.611 1.297 3.384 2.232 6.925 2.736 10.611z" fill="#B38A2C"/>
<path d="m494.72 495.27s-81.948-14.314-56.82 41.314c-7.129-0.664-12.283-1.959-13.422-4.363-27.144-57.27 56.176-42.711 56.176-42.711l14.066 5.76z" fill="#B38A2C"/>
<path d="m403.22 404.99c-10.153 23.791-16.97 54.209-36.028 72.266-11.692 11.078-44.722 2.568-40.151 38.365 1.452 11.377 17.926 15.531 28.577 16.709 41.732 4.613 53.128-27.691 57.246-39.064 4.318-11.926 67.294-55.852 56.731-96.605-4.496-17.352-29.199-29.814-45.006-21.686-14.909 7.666-15.563 19.896-22.559 32.396" fill="#B88E2E"/>
<path d="m412.86 493.27c-4.118 11.377-15.509 43.689-57.239 39.066-6.149-0.676-14.242-2.346-20.261-5.832 4.349 1.369 8.898 2.174 12.699 2.594 41.732 4.621 53.123-27.691 57.24-39.068 4.321-11.924 67.292-55.844 56.735-96.596-2.102-8.063-8.539-15.063-16.43-19.439 11.102 3.428 21.256 12.154 23.99 22.68 10.556 40.751-52.413 84.671-56.734 96.595z" fill="#B38A2C"/>
	<path d="m548.04 304.99c-7.547 4.592-19.6-1.441-26.941-13.481-1.672-2.736-2.953-5.558-3.832-8.321h-49.363s6.916-8.938 8.725-12.227c1.313-2.384 4.104-10.08 4.104-10.08h37.457c0.359-1.771 0.865-3.571 1.514-5.371 4.736-13.277 15.32-21.629 23.629-18.662 8.324 2.966 11.217 16.143 6.465 29.419-0.805 2.261-1.785 4.392-2.893 6.336 0.52 0.733 1.021 1.482 1.498 2.276 7.327 12.023 7.168 25.515-0.363 30.111z" fill="#FFFDE9"/>
	<path d="m539.67 306.28c-0.963 0.293-11.232-3.018-18.578-15.057-1.67-2.736-2.951-5.559-3.83-8.324h-49.363s3.27-4.232 5.891-7.935h43.473c0.879 2.766 2.16 5.589 3.83 8.324 7.346 12.039 20.697 19.726 26.943 13.478 0.902-0.901-1.132 7.317-8.366 9.514z" fill="#B38A2C" opacity=".1"/>
	<path d="m548.03 305c-2.418 1.471-5.313 1.844-8.365 1.283 1.182-0.232 2.289-0.662 3.326-1.283 7.531-4.606 7.689-18.1 0.359-30.123-0.475-0.793-0.979-1.541-1.496-2.276 1.109-1.942 2.088-4.074 2.895-6.335 4.752-13.277 1.857-26.454-6.467-29.419-0.346-0.13-0.705-0.23-1.066-0.302 2.09-0.462 4.162-0.39 6.107 0.302 8.324 2.965 11.217 16.142 6.465 29.419-0.807 2.261-1.785 4.393-2.895 6.335 0.518 0.735 1.021 1.483 1.498 2.276 7.331 12.023 7.172 25.517-0.361 30.123z" fill="#B38A2C" opacity=".1"/>
	<path d="m265.6 304.99c7.545 4.592 19.6-1.441 26.942-13.48 1.671-2.736 2.952-5.557 3.831-8.322h49.362s-6.914-8.936-8.724-12.226c-1.313-2.384-4.103-10.08-4.103-10.08h-37.457c-0.359-1.771-0.864-3.571-1.513-5.371-4.737-13.277-15.321-21.629-23.63-18.663-8.323 2.967-11.217 16.143-6.466 29.419 0.806 2.262 1.786 4.394 2.895 6.337-0.52 0.734-1.022 1.482-1.498 2.275-7.329 12.024-7.171 25.517 0.361 30.111z" fill="#FFFDE9"/>
	<path d="m273.78 306.24c1.376 0.289 12.168-4.159 18.766-15.018 1.612-2.653 2.871-5.381 3.747-8.061l0.084-0.261h49.363s-3.269-4.234-5.891-7.936h-43.473c-0.879 2.766-2.16 5.588-3.831 8.324-7.344 12.04-22.251 20.965-26.941 13.479-0.412-0.657 0.719 7.907 8.176 9.473z" fill="#B38A2C" opacity=".1"/>
	<path d="m265.6 305c2.419 1.471 5.313 1.846 8.366 1.283-1.182-0.23-2.289-0.662-3.326-1.283-7.531-4.604-7.691-18.099-0.359-30.123 0.476-0.791 0.979-1.54 1.497-2.275-1.109-1.943-2.088-4.074-2.896-6.336-4.752-13.276-1.857-26.453 6.467-29.419 0.346-0.13 0.705-0.23 1.064-0.302-2.088-0.461-4.16-0.39-6.105 0.302-8.323 2.966-11.217 16.143-6.466 29.419 0.808 2.262 1.786 4.393 2.896 6.336-0.52 0.735-1.021 1.484-1.498 2.275-7.331 12.024-7.173 25.519 0.36 30.123z" fill="#B38A2C" opacity=".1"/>
<ellipse cx="452.82" cy="177.43" rx="33.649" ry="38.446" fill="#B38A2C"/>
<ellipse cx="363.69" cy="177.43" rx="33.649" ry="38.446" fill="#B38A2C"/>
<ellipse cx="453.24" cy="178.24" rx="27.809" ry="31.774" fill="#fff"/>
<ellipse cx="452.82" cy="178.24" rx="18.375" ry="20.037"/>
<ellipse cx="452.82" cy="177.43" rx="15.186" ry="16.56"/>
<ellipse cx="447.06" cy="178.24" rx="5.76" ry="6.168" fill="#fff"/>
<ellipse cx="365.85" cy="178.24" rx="27.809" ry="31.774" fill="#fff"/>
<ellipse cx="365.85" cy="177.43" rx="18.375" ry="20.037"/>
<ellipse cx="365.78" cy="177.43" rx="15.186" ry="16.56"/>
<ellipse cx="369.45" cy="178.24" rx="5.76" ry="6.168" fill="#fff"/>
<path d="m408.64 296.43c15.715 0 21.006-12.034 21.006-12.034l-21.317-5.445-16.932 6.124s4.815 11.355 17.243 11.355z" fill="#FFD796" stroke="#CCB075" stroke-miterlimit="10" stroke-width="2.88"/>
<path d="m333.45 245.11s0 34.56 19.44 39.642c30.902 8.079 55.44-5.803 55.44-5.803s38.8 12.961 55.438 4.32c19.686-10.221 21.602-38.159 21.602-38.159" fill="none" stroke="#CCB075" stroke-linecap="round" stroke-linejoin="round" stroke-miterlimit="10" stroke-width="2.88"/>
<path d="m321.91 251.25s0.75-11.28 10.56-12.24c8.011-0.783 12.511 7.92 12.511 7.92" fill="none" stroke="#CCB075" stroke-linecap="round" stroke-linejoin="round" stroke-miterlimit="10" stroke-width="2.88"/>
<path d="m496.49 251.25s-0.752-11.28-10.561-12.24c-8.012-0.783-12.512 7.921-12.512 7.921" fill="none" stroke="#CCB075" stroke-linecap="round" stroke-linejoin="round" stroke-miterlimit="10" stroke-width="2.88"/>
<polygon points="428.8 475.07 443.13 489.24 447.37 488.58 430.41 473.71" fill="#B38A2C"/>
<path d="m459.6 455.62l-2.775-1.174s5.146 13.645 8.945 19.26c2.928 4.33 13.994 15.537 13.994 15.537s-10.934-13.994-13.053-17.398c-3.586-5.762-7.111-16.225-7.111-16.225z" fill="#B38A2C"/>
</svg>