<?xml version='1.0' encoding='utf-8'?>
<svg xmlns="http://www.w3.org/2000/svg" xmlns:xlink="http://www.w3.org/1999/xlink" enable-background="new 0 0 36.15 40.95" version="1.1" viewBox="0 0 36.15 40.95">
<symbol id="p" viewBox="-4.8 -6.328 9.668 12.67">
	<g clip-rule="evenodd" fill-rule="evenodd">
		<path d="m0.35-3l0.75 0.15c0.567 0.066 0.967 0.05 1.2-0.05 0.367-0.167 0.9-0.566 1.6-1.2 0.733-0.7 1.05-1.15 0.95-1.35-0.2-0.3-0.733-0.1-1.6 0.6l0.75-1.2c-1-0.333-1.783-0.367-2.35-0.1-0.367 0.133-0.667 0.4-0.9 0.8l-0.3 0.55-0.1 1.8z" fill="#BA7763"/>
		<path d="m1.45-3.9l0.35-1c0.433-0.7 1.167-1.083 2.2-1.15-1-0.333-1.783-0.367-2.35-0.1-0.367 0.133-0.667 0.4-0.9 0.8l-0.3 0.55v0.55l1 0.35z" fill="#9E6554"/>
		<path d="m-4.5 2.65l-0.3 1.45c0.8 1.933 1.783 2.616 2.95 2.05 1-0.434 1.667-1.3 2-2.6 0.667-2.6 1.9-5.067 3.7-7.4 0.033-0.033-0.184-0.167-0.65-0.4-0.967-0.567-1.867-0.6-2.7-0.1-0.067 0.367-0.217 0.8-0.45 1.3-0.5 1.033-1.216 1.9-2.15 2.6-1.2 0.9-2 1.933-2.4 3.1z" fill="#FFBDBA"/>
		<path d="m-3.6 1l-0.3 1.85c0 0.133 0.3 0.483 0.9 1.05 0.6 0.533 1.283 1.066 2.05 1.6 0.567-0.633 0.934-1.284 1.1-1.95 0.267-1.167 0.783-2.5 1.55-4-0.467 0.067-0.8-0.117-1-0.55-0.167-0.434-0.15-0.967 0.05-1.6 0.3-0.8 0.9-1.45 1.8-1.95-0.466-0.133-0.95-0.133-1.45 0l-0.6 0.2c-0.067 0.367-0.217 0.8-0.45 1.3-0.5 1.033-1.216 1.9-2.15 2.6-0.433 0.333-0.933 0.817-1.5 1.45z" fill="#E8A09B"/>
	</g>
</symbol>
<symbol id="q" viewBox="-5.073 -7.75 10.1 15.466">
	<g clip-rule="evenodd" fill-rule="evenodd">
		<path d="m-0.2-3.7l0.95 0.15c0.667 0.033 1.133-0.017 1.4-0.15 0.4-0.167 1-0.667 1.8-1.5 0.833-0.866 1.183-1.417 1.05-1.65-0.233-0.333-0.85-0.05-1.85 0.85l0.85-1.5c-1.233-0.333-2.184-0.333-2.85 0-0.4 0.2-0.733 0.534-1 1l-0.3 0.65-0.05 2.15z" fill="#BA7763"/>
		<path d="m1.05-4.8l0.4-1.2c0.5-0.867 1.35-1.367 2.55-1.5-1.233-0.333-2.184-0.333-2.85 0-0.4 0.2-0.733 0.534-1 1l-0.3 0.65v0.7l1.2 0.35z" fill="#9E6554"/>
		<path d="m-4.65 1.95c-0.399 1.065-0.516 2.065-0.35 3l0.35 1.05 4.3-3.5 0.15-7.1c-0.065 0.896-0.723 1.945-1.975 3.15-1.253 1.204-2.078 2.338-2.475 3.4z" fill="#E8A09B"/>
		<path d="m2.3 0.625c-0.237-0.681-0.487-1.189-0.75-1.525-0.497 1.634-0.931 3.317-1.3 5.05l-1 2.7c0.433-0.033 1.083-0.533 1.95-1.5 0.528-0.612 0.903-1.387 1.125-2.325 0.226-0.926 0.218-1.726-0.025-2.4z" fill="#E8A09B"/>
		<path d="m-4.65 6c1.333 2.067 2.784 2.267 4.35 0.6 1.4-1.5 2.05-3.033 1.95-4.6-0.067-1.267 0.25-2.816 0.95-4.65 0.333-0.9 0.683-1.683 1.05-2.35l-0.8-0.35c-0.566-0.233-1.566-0.4-3-0.5-0.033 0.6-0.15 1.3-0.35 2.1-0.434 1.6-1.1 2.9-2 3.9-1.2 1.3-1.917 2.667-2.15 4.1v1.75z" fill="#FFBDBA"/>
	</g>
</symbol>
<symbol id="r" viewBox="-16.174 -18.63 20.797 27.798">
	<g clip-rule="evenodd" fill-rule="evenodd">
		<path d="m3.15-0.4c-1.234-0.427-2.034-1.193-2.4-2.3-0.367-1.102-0.333-3.035 0.1-5.8 0.233-2.7-0.283-4.683-1.55-5.95-1.233-1.233-2.7-2.15-4.4-2.75-1.9-0.667-3.75-0.783-5.55-0.35 1.733-0.767 3.583-1.067 5.55-0.9 1.583 0.137 2.974 0.57 4.175 1.3-2.75-1.768-5.891-1.952-9.425-0.55-4.133 1.7-6.066 4.983-5.8 9.85 0.2 3.2 1.633 6.233 4.3 9.1 1.367 1.433 2.7 2.55 4 3.35 8.784 7.453 12.451 5.786 11-5z" fill="#FFBDBA"/>
		<path d="m3.15-0.4c0.46 0.172 0.835 0.139 1.125-0.1 0.292-0.234 0.4-0.351 0.325-0.35-0.269-0.415-0.502-0.715-0.7-0.9-0.333-0.3-0.683-1.017-1.05-2.15-0.2-0.667-0.017-2.45 0.55-5.35 0.1-3-1.083-5.45-3.55-7.35-0.089-0.069-0.181-0.135-0.275-0.2l-0.5-0.35c-1.201-0.73-2.593-1.164-4.175-1.3-1.967-0.167-3.816 0.133-5.55 0.9 1.8-0.434 3.65-0.317 5.55 0.35 1.7 0.6 3.167 1.517 4.4 2.75 1.267 1.267 1.784 3.25 1.55 5.95-0.433 2.765-0.467 4.698-0.1 5.8 0.366 1.107 1.166 1.873 2.4 2.3z" fill="#E8A09B"/>
	</g>
</symbol>
<symbol id="s" viewBox="-5.35 -3.685 10.7 7.46">
		<path d="m5.3 0.95c0.1-0.466 0.05-1-0.15-1.6-0.467-1.2-1.517-2.15-3.15-2.85-1.3-0.567-2.917 0.167-4.85 2.2l-2.5 3.2 0.75 0.85c0.8 0.566 1.933 0.9 3.4 1 2.2 0.133 3.95-0.283 5.25-1.25 0.633-0.5 1.05-1.017 1.25-1.55z" clip-rule="evenodd" fill="#E8A09B" fill-rule="evenodd"/>
</symbol>
<symbol id="t" viewBox="-7.6 -5.005 15.156 10.056">
	<g clip-rule="evenodd" fill-rule="evenodd">
		<path d="m6.65 3.45c0.4-0.533 0.617-1.233 0.65-2.1 0.067-1.767-0.783-3.55-2.55-5.35-1.4-1.434-3.883-1.333-7.45 0.3-1.767 0.8-3.4 1.75-4.9 2.85 0 0.4 0.184 0.883 0.55 1.45 0.7 1.133 1.966 2.15 3.8 3.05 2.8 1.367 5.283 1.733 7.45 1.1 1.1-0.3 1.917-0.733 2.45-1.3z" fill="#FFBDBA"/>
		<path d="m7.25 1.85c0.2-1.367-0.183-2.767-1.15-4.2-0.467-0.334-1-0.55-1.6-0.65-2.433-0.434-4.517-0.117-6.25 0.95l-1.9 1.75c0.066 0.333 0.3 0.717 0.7 1.15 0.867 0.867 2.233 1.534 4.1 2 2.733 0.667 4.767 0.333 6.1-1z" fill="#E39C8C"/>
		<path d="m1.15 2.85c2.733 0.667 4.767 0.333 6.1-1l0.05-0.8c-1.6 1-3.583 1.317-5.95 0.95-2.434-0.367-4.1-1.117-5-2.25 0 0.3 0.267 0.7 0.8 1.2 0.867 0.8 2.2 1.433 4 1.9z" fill="#BA7763"/>
		<path d="m4.1-0.15l-0.35-0.3 0.55 0.75c0.333 0.467 0.983 0.833 1.95 1.1h-0.5l-1.6-0.25 1.05 0.45c0.566 0.267 1.25 0.35 2.05 0.25 0.233-0.2 0.333-0.5 0.3-0.9 0-0.4-0.15-0.767-0.45-1.1l-0.4 0.05c-0.3 0-0.6-0.133-0.9-0.4l-0.35-0.4-0.1 0.55c-0.033 0.233 0.033 0.45 0.2 0.65 0.1 0.1 0.184 0.183 0.25 0.25-0.133 0-0.417-0.083-0.85-0.25-0.267-0.1-0.55-0.25-0.85-0.45z" fill="#FFBDBA"/>
	</g>
</symbol>
<symbol id="u" viewBox="-3.559 -3.46 7.13 6.97">
		<path d="m3.55-0.3c-0.067-0.933-0.483-1.717-1.25-2.35-0.767-0.6-1.633-0.867-2.6-0.8-0.967 0.066-1.767 0.466-2.4 1.2s-0.917 1.583-0.85 2.55c0.066 0.966 0.483 1.767 1.25 2.4 0.767 0.6 1.633 0.867 2.6 0.8 0.967-0.1 1.784-0.517 2.45-1.25 0.633-0.767 0.9-1.617 0.8-2.55z" clip-rule="evenodd" fill="#FFF5F5" fill-rule="evenodd"/>
</symbol>
<symbol id="v" viewBox="-3.95 -1.5 7.957 3.058">
	<g clip-rule="evenodd" fill-rule="evenodd">
		<path d="m2.35 1.55c0.033-0.133 0.017-0.233-0.05-0.3-0.133-0.133-0.317-0.217-0.55-0.25h-0.25l1.25-0.5c0.399-0.2 0.816-0.467 1.25-0.8 0.067-0.133-0.35-0.183-1.25-0.15l-1.55 0.2 0.4-0.6c0.1-0.3 0.1-0.517 0-0.65-0.167 0-0.467 0.117-0.9 0.35l-0.85 0.6-1.45 0.15-0.2 0.25-0.05 0.1c0.066 0.1 0.35 0.217 0.85 0.35l0.3 0.3c0.266 0.233 0.5 0.383 0.7 0.45 0.366 0.133 1.149 0.3 2.35 0.5z" fill="#E8A09B"/>
		<path d="m2.2-0.25c-0.467 0.066-0.85 0.15-1.15 0.25l-0.25 0.1c0.466-0.667 0.683-1.05 0.65-1.15l-0.05-0.2c-0.534 0.267-0.9 0.483-1.1 0.65l-0.35 0.3-3.1-0.25c-0.267 0-0.483 0.05-0.65 0.15l-0.15 0.15 1 0.7c0.833 0.5 1.733 0.8 2.7 0.9 1.5 0.167 2.367 0.233 2.6 0.2-0.067-0.233-0.333-0.367-0.8-0.4l-0.651-0.05 0.85-0.3c0.6-0.233 1.033-0.45 1.3-0.65l0.7-0.4c-0.266-0.1-0.783-0.1-1.549 0z" fill="#FFBDBA"/>
	</g>
</symbol>
<symbol id="w" viewBox="-8.216 -1.946 24.416 20.596">
	<g clip-rule="evenodd" fill-rule="evenodd">
		<path d="m11.875 1.375l-0.125 0.075c-1.667-0.6-2.8-0.983-3.4-1.15-1.1-0.3-2.217-0.467-3.35-0.5-0.92-0.024-1.937-0.323-3.05-0.9-4.803-0.238-8.069 1.662-9.8 5.7-0.533 2.333-0.483 4.667 0.15 7 1.267 4.7 4.784 7.05 10.55 7.05 3.9-0.033 6.633-1.316 8.2-3.85 0.233-0.367 0.7-1.316 1.4-2.85 0.433-1 0.883-1.617 1.35-1.85 1.034-0.533 1.667-0.684 1.9-0.45l0.45-1.35c0.167-1.167-0.083-2.35-0.75-3.55-0.767-1.367-1.7-2.367-2.8-3-0.203-0.12-0.444-0.245-0.725-0.375z" fill="#FFBDBA"/>
		<path d="m11.875 1.375l0.025-0.025c-0.311-0.142-0.761-0.316-1.35-0.525l-0.525-0.175c-0.753-0.269-1.628-0.552-2.625-0.85-1.231-0.365-2.098-0.682-2.6-0.95s-1.01-0.51-1.525-0.725c-0.51-0.21-0.952 0.048-1.325 0.775 1.113 0.577 2.13 0.876 3.05 0.9 1.133 0.033 2.25 0.2 3.35 0.5 0.6 0.167 1.733 0.55 3.4 1.15l0.125-0.075z" fill="#E8A09B"/>
	</g>
</symbol>
<symbol id="x" viewBox="-6.105 -5.091 12.205 10.153">
	<g clip-rule="evenodd" fill-rule="evenodd">
		<path d="m2.9-4.4c0.066 0.233 0.15 0.45 0.25 0.65 0.2 0.466 0.383 0.7 0.55 0.7 0.433 0.033 0.917 0.133 1.45 0.3 0.433 0.167 0.667 0.233 0.7 0.2 0.2-0.133-0.033-0.383-0.7-0.75l0.95 0.05c-0.3-0.767-0.633-1.284-1-1.55-0.4-0.267-0.816-0.35-1.25-0.25l-0.95 0.65z" fill="#BA7763"/>
		<path d="m3.05-3.5l1.1-0.45c0.8-0.167 1.45 0.067 1.95 0.7-0.3-0.767-0.633-1.284-1-1.55-0.4-0.267-0.816-0.35-1.25-0.25l-0.9 0.75 0.1 0.8z" fill="#9E6554"/>
		<path d="m-5.2 2.1c-0.567 1.067-0.866 1.7-0.9 1.9-0.067 0.633 0.45 0.983 1.55 1.05 1.733 0.1 3.133-0.433 4.2-1.6 0.9-1 1.233-2.017 1-3.05-0.2-0.967-0.4-1.533-0.6-1.7l0.65-0.4c0.6-0.267 1.333-0.5 2.2-0.7l2.05-0.5c-0.2 0-0.4-0.017-0.6-0.05-0.467-0.067-0.767-0.233-0.9-0.5-0.233-0.433-0.266-0.817-0.1-1.15-1.2 0.166-2.617 0.45-4.25 0.85-3.2 0.767-4.717 1.667-4.55 2.7 0.233 0.434 0.417 0.8 0.55 1.1 0.2 0.567 0.1 1.25-0.3 2.05z" fill="#E8A09B"/>
	</g>
</symbol>
<symbol id="y" viewBox="-6.45 -6.296 12.9 12.606">
	<g clip-rule="evenodd" fill-rule="evenodd">
		<path d="m-5.5 4.675c0.432 0.547 1.381 0.964 2.85 1.25 1.468 0.277 2.684-0.431 3.65-2.125 0.968-1.687 1.101-3.062 0.4-4.125-0.708-1.063-0.7-1.796 0.025-2.2 0.723-0.404 1.299-0.662 1.725-0.775l-0.6-0.05c-1.867 0-3.583 0.417-5.15 1.25-1.733 0.934-3.017 2.25-3.85 3.95l0.05 0.3c0.166 1.136 0.466 1.977 0.9 2.525z" fill="#E8A09B"/>
		<path d="m6-3.35c0.267-0.167-0.033-0.433-0.9-0.8l1.35-0.1c-0.333-0.933-0.75-1.533-1.25-1.8s-1.033-0.317-1.6-0.15l-1.4 0.95c0.066 0.267 0.15 0.533 0.25 0.8 0.2 0.567 0.417 0.833 0.65 0.8 0.567-0.033 1.217 0.017 1.95 0.15 0.6 0.133 0.917 0.183 0.95 0.15z" fill="#BA7763"/>
		<path d="m2.25-4.15l1.55-0.7c1.133-0.3 2.017-0.1 2.65 0.6-0.333-0.933-0.75-1.533-1.25-1.8s-1.033-0.317-1.6-0.15l-1.35 1.05c0.067 0.233 0.083 0.467 0.05 0.7l-0.05 0.3z" fill="#9E6554"/>
		<path d="m0-2.1c0.633-0.367 1.383-0.65 2.25-0.85 0.667-0.167 1.367-0.383 2.1-0.65-0.2 0.033-0.4 0.017-0.6-0.05-0.467-0.067-0.783-0.267-0.95-0.6-0.233-0.533-0.267-1-0.1-1.4-1.233 0.167-2.684 0.5-4.35 1-3.267 0.967-4.817 2.066-4.65 3.3 0.267 0.567 0.45 1.033 0.55 1.4 0.233 0.667 0.133 1.5-0.3 2.5-0.367 0.833-0.35 1.633 0.05 2.4 0.467 0.8 1.317 1.25 2.55 1.35 1.733 0.1 3-0.566 3.8-2 0.667-1.167 0.883-2.417 0.65-3.75-0.2-1.2-0.767-1.933-1.7-2.2l0.7-0.45z" fill="#FFBDBA"/>
	</g>
</symbol>
<symbol id="z" viewBox="-3.9 -1.074 7.85 2.174">
		<path d="m-1.4-0.4c-0.8 0.367-1.45 0.733-1.95 1.1l-0.55 0.4 0.55-0.35c0.534-0.267 1.267-0.55 2.2-0.85 1.3-0.434 2.5-0.617 3.6-0.55 0.566 0.033 1 0.117 1.3 0.25l0.2 0.15-0.5-0.4-0.95-0.4c-1.434-0.1-2.734 0.117-3.9 0.65z" clip-rule="evenodd" fill="#BA7763" fill-rule="evenodd"/>
</symbol>
<symbol id="aa" viewBox="-1.991 -3.8 4.042 7.6">
	<g clip-rule="evenodd" fill-rule="evenodd">
		<path d="m1.55 3.8l0.45-1.35c0.167-1.167-0.083-2.35-0.75-3.55-0.633-1.067-1.367-1.967-2.2-2.7-0.833 0.333-1.167 1.35-1 3.05 0.167 1.767 0.8 3.033 1.9 3.8 0.633 0.367 1.067 0.583 1.3 0.65l0.3 0.1z" fill="#FFCDCA"/>
		<path d="m1 1.2c-0.133-0.3-0.233-0.617-0.3-0.95 0.133-0.467 0.183-0.767 0.15-0.9-0.133-0.534-0.35-0.933-0.65-1.2s-0.483-0.217-0.55 0.15c-0.067 0.567 0.133 1.217 0.6 1.95 0.233 0.367 0.483 0.683 0.75 0.95z" fill="#E3A496"/>
	</g>
</symbol>
<symbol id="ab" viewBox="-17.933 -20.5 36.033 40.958">
			<use transform="translate(4.7998 -11.1)" x="-6.105" y="-5.091" width="12.205" height="10.153" xlink:href="#x"/>
			<use transform="translate(4.75 -11.1)" x="-4.8" y="-6.328" width="9.668" height="12.67" xlink:href="#p"/>
			<use transform="translate(-.3999 15.55)" x="-5.35" y="-3.685" width="10.7" height="7.46" xlink:href="#s"/>
			<use transform="translate(-13.45 -11.15)" x="-4.482" y="-1.6" width="5.352" height="3.154" xlink:href="#ad"/>
			<use transform="translate(1.8999 1.0498)" x="-16.174" y="-18.63" width="20.797" height="27.798" xlink:href="#r"/>
			<use transform="translate(1.8999 1.1001)" x="-8.216" y="-1.946" width="24.416" height="20.596" xlink:href="#w"/>
			<use transform="translate(-.0498 -12.75)" x="-5.073" y="-7.75" width="10.1" height="15.466" xlink:href="#q"/>
			<use transform="translate(-6.8501 -14.05)" x="-6.45" y="-6.296" width="12.9" height="12.606" xlink:href="#y"/>
			<use transform="translate(-7 11.9)" x="-7.6" y="-5.005" width="15.156" height="10.056" xlink:href="#t"/>
			<use transform="translate(10.9 3.25)" x="-3.9" y="-1.074" width="7.85" height="2.174" xlink:href="#z"/>
			<use transform="translate(7.5 9.3501)" x="-3.559" y="-3.46" width="7.13" height="6.97" xlink:href="#u"/>
			<use transform="translate(8.25 9.3999)" x="-2.55" y="-2.45" width="5.15" height="4.9" xlink:href="#ac"/>
			<use transform="translate(3.1499 18.9)" x="-3.95" y="-1.5" width="7.957" height="3.058" xlink:href="#v"/>
			<use transform="translate(16.05 6.8999)" x="-1.991" y="-3.8" width="4.042" height="7.6" xlink:href="#aa"/>
</symbol>
<symbol id="ac" viewBox="-2.55 -2.45 5.15 4.9">
	<g clip-rule="evenodd" fill-rule="evenodd">
		<path d="m2.6 0c0-0.667-0.25-1.25-0.75-1.75-0.5-0.467-1.117-0.7-1.85-0.7-0.7 0-1.3 0.233-1.8 0.7-0.5 0.5-0.75 1.083-0.75 1.75s0.25 1.25 0.75 1.75c0.5 0.466 1.1 0.7 1.8 0.7 0.733 0 1.35-0.233 1.85-0.7 0.5-0.5 0.75-1.083 0.75-1.75z" fill="#292727"/>
		<path d="m0.75 1.05c0-0.367-0.133-0.7-0.4-1-0.3-0.267-0.633-0.4-1-0.4-0.4 0-0.733 0.133-1 0.4-0.267 0.3-0.4 0.633-0.4 1s0.133 0.7 0.4 1c0.267 0.267 0.6 0.4 1 0.4 0.367 0 0.7-0.133 1-0.4 0.267-0.3 0.4-0.633 0.4-1z" fill="#FFF5F5"/>
		<path d="m-1.1-1.6h0.5c0.434 0 0.85 0.1 1.25 0.3 0.867 0.4 1.367 0.934 1.5 1.6 0.167-0.867-0.217-1.567-1.15-2.1-0.5-0.267-1-0.317-1.5-0.15l-0.6 0.35z" fill="#8F5B59"/>
	</g>
</symbol>
<symbol id="ad" viewBox="-4.482 -1.6 5.352 3.154">
	<g clip-rule="evenodd" fill-rule="evenodd">
		<path d="m-3.05-0.6c0.667-0.233 0.85-0.45 0.55-0.65-0.434-0.367-0.95-0.367-1.55 0-0.367 0.2-0.5 0.583-0.4 1.15 0.033-0.266 0.183-0.45 0.45-0.549 0.333-0.134 0.65-0.117 0.95 0.049z" fill="#FFBDBA"/>
		<path d="m-1.7-0.05c-0.034-0.019-0.067-0.035-0.1-0.05l-0.25-0.1c0.3 0.4 0.267 0.667-0.1 0.8-0.2 0.1-0.367 0.066-0.5-0.1-0.1-0.167-0.117-0.333-0.05-0.5 0.232-0.347 0.565-0.364 1-0.05zm-1.6 1.151c0.267 0.333 0.6 0.483 1 0.45 0.8-0.033 1.133-0.45 1-1.25v-0.026c0.099 0.127 0.232 0.302 0.4 0.525 0.233 0.3 0.45 0.467 0.65 0.5 0.267 0.033 0.533-0.117 0.8-0.45s0.367-0.7 0.3-1.1c-0.134-0.899-0.983-1.35-2.55-1.35-1.267 0.033-1.933 0.567-2 1.6-0.033 0.434 0.1 0.8 0.4 1.101z" fill="#FFBDBA"/>
		<path d="m-0.25 1.3c0.267 0.033 0.533-0.117 0.8-0.45s0.367-0.7 0.3-1.1c-0.134-0.899-0.983-1.35-2.55-1.35-0.767 0.033-1.333 0.267-1.7 0.7l0.25-0.15c0.467-0.333 1.017-0.466 1.65-0.4 0.6 0.067 0.933 0.317 1 0.75 0.066 0.333 0 0.667-0.2 1l-0.3 0.4c0.267 0.401 0.517 0.6 0.75 0.6z" fill="#E8A09B"/>
	</g>
</symbol>
<use transform="matrix(1 0 0 -1 18.05 20.45)" x="-17.933" y="-20.5" width="36.033" height="40.958" xlink:href="#ab"/>
</svg>