<?xml version="1.0" encoding="UTF-8"?>
<svg viewBox="0 0 128 128" xmlns="http://www.w3.org/2000/svg">
 <defs>
  <linearGradient id="c" x1="7.438" x2="120.63" gradientUnits="userSpaceOnUse">
   <stop stop-color="#f0ff80" offset="0"/>
   <stop stop-color="#8bb300" offset="1"/>
  </linearGradient>
  <radialGradient id="d" cx="23.987" cy="10.853" r="56.16" gradientTransform="matrix(0 2.273 -2.2293 0 8.5535 -1.7792)" gradientUnits="userSpaceOnUse">
   <stop stop-color="#eee" offset="0"/>
   <stop stop-color="#eee" stop-opacity="0" offset="1"/>
  </radialGradient>
 </defs>
 <g transform="matrix(-1,0,0,1,128,0)">
  <path d="m118.15 35.975c-0.0747-0.76233-0.71537-1.3437-1.4813-1.3442h-39.995l-0.02743-23.291c0.0026-0.57881-0.32695-1.0972-0.85037-1.3442-0.52342-0.24702-1.1459-0.17793-1.591 0.19203l-63.832 53.138c-0.34196 0.287-0.52652 0.70577-0.52119 1.1522 0.00531 0.44642 0.19992 0.87342 0.54862 1.1522l63.832 52.206c0.4456 0.35289 1.0506 0.40944 1.5636 0.16459 0.51297-0.24484 0.84444-0.74839 0.85037-1.3168l0.02743-23.291 39.995 0.02743c0.39697-0.0021 0.76426-0.15564 1.0424-0.43893 0.27812-0.28329 0.44405-0.67292 0.4389-1.0699v-55.799c2e-3 -0.0457 2e-3 -0.09147 0-0.13717z" fill="#007880" fill-rule="evenodd" stroke-width="3.393"/>
  <path d="m118.15 35.975c-0.0747-0.76233-0.71537-1.3437-1.4813-1.3442h-39.995l-0.02743-23.291c0.0026-0.57881-0.32695-1.0972-0.85037-1.3442-0.52342-0.24702-1.1459-0.17793-1.591 0.19203l-63.832 53.138c-0.34196 0.287-0.52652 0.70577-0.52119 1.1522 0.00531 0.44642 0.19992 0.87342 0.54862 1.1522l63.832 52.206c0.4456 0.35289 1.0506 0.40944 1.5636 0.16459 0.51297-0.24484 0.84444-0.74839 0.85037-1.3168l0.02743-23.291 39.995 0.02743c0.39697-0.0021 0.76426-0.15564 1.0424-0.43893 0.27812-0.28329 0.44405-0.67292 0.4389-1.0699v-55.799c2e-3 -0.0457 2e-3 -0.09147 0-0.13717z" fill="#638000" fill-rule="evenodd" stroke-width="3.393"/>
  <path transform="matrix(0 .9025 -.9025 0 121.76 6.24)" d="m33.938 6.4688v43.5a2.4825 2.4825 0 0 1 -2.4688 2.4688l-24.031 0.03125 57.094 68.625 56.094-68.625-24.062-0.03125a2.4825 2.4825 0 0 1 -2.4688 -2.4688l0.03125-43.5h-60.188z" fill="url(#c)" fill-rule="evenodd" stroke-width="3.393"/>
  <path transform="matrix(0 .9025 -.9025 0 121.76 6.24)" d="m34.656 7.1875v42.781a3.1783 3.1783 0 0 1 -3.1875 3.1875l-22.562 0.03125 55.594 66.812 54.625-66.812-22.562-0.03125a3.1783 3.1783 0 0 1 -3.1875 -3.1875l0.03125-42.781h-58.75z" fill="none" stroke="url(#d)" stroke-linecap="round" stroke-linejoin="round" stroke-miterlimit="10" stroke-width="2.1"/>
 </g>
</svg>
